<svg xmlns="http://www.w3.org/2000/svg" width="20" height="20.455" viewBox="0 0 20 20.455">
    <path fill="#fda15a" d="M10.545.5a4.206 4.206 0 0 1 1.364 2.727 1.229 1.229 0 0 1-1.364 1.364c-.755 0-1.364-.136-1.364-1.136s.91-1.591 1.364-2.955m6.364 7.727a4.09 4.09 0 0 1 2.273 7.491v5.236H2.818v-5.236a4.09 4.09 0 0 1 2.273-7.491h4.091V5.5h2.727v2.727h5M11 14.591a2.273 2.273 0 0 0 2.273-2.273h1.364a2.273 2.273 0 1 0 2.273-2.273H5.091a2.273 2.273 0 1 0 2.273 2.273h1.363A2.273 2.273 0 0 0 11 14.591z" transform="translate(-1 -.5)"/>
</svg>
