<svg xmlns="http://www.w3.org/2000/svg" width="40" height="34" viewBox="0 0 40 34">
    <defs>
        <style>
            .cls-1{fill:#f87024}
        </style>
    </defs>
    <g id="rss-feed" transform="translate(.001 -40.098)">
        <path id="Path_1" d="M39.976 69.97l-1.445-5.823a.782.782 0 1 0-1.516.382l1.2 4.845H1.781L5.93 52.648a.783.783 0 0 1 .759-.6h26.622a.78.78 0 0 1 .757.6l1.242 5.006a.782.782 0 1 0 1.516-.382l-1.241-5.007a2.345 2.345 0 0 0-2.274-1.789h-.342v-2.362a2.356 2.356 0 0 0-2.337-2.362A2.373 2.373 0 0 0 30 43.573l-2.76-2.784a2.334 2.334 0 0 0-3.315 0l-1.541 1.553a4.389 4.389 0 0 0-7.024 1.048H12.5a2.356 2.356 0 0 0-2.344 2.362v.818a4.439 4.439 0 0 0-3.879 3.944 2.349 2.349 0 0 0-1.862 1.752L.022 69.97a.8.8 0 0 0-.022.191v3.15a.784.784 0 0 0 .78.789h38.438a.784.784 0 0 0 .782-.789v-3.15a1.5 1.5 0 0 0-.023-.191zm-9.352-22.643a.785.785 0 0 1 .781.787v2.362h-3.956a4.464 4.464 0 0 0-.335-3.044.767.767 0 0 1 .386-.105zM25.03 41.9a.778.778 0 0 1 1.1 0l2.77 2.786a.792.792 0 0 1 .043 1.066H27.5a2.315 2.315 0 0 0-1.323.415 4.385 4.385 0 0 0-2.534-1.175 4.443 4.443 0 0 0-.358-1.33zm-1.867 4.637a2.873 2.873 0 0 1 2.647 3.937h-3.023a2.367 2.367 0 0 0-.676-1.864l-1.086-1.095a2.834 2.834 0 0 1 2.138-.976zM19.257 42.6a2.863 2.863 0 0 1 2.826 2.5 4.409 4.409 0 0 0-2.164 1.3l-.57-.574a2.334 2.334 0 0 0-2.942-.305v-.046a2.866 2.866 0 0 1 2.85-2.875zm-2.118 4.339a.778.778 0 0 1 1.1 0l2.762 2.784a.791.791 0 0 1 .2.751h-6.154a4.453 4.453 0 0 0-.268-1.093c.037-.078 2.36-2.442 2.36-2.442zm-5.421-1.19a.785.785 0 0 1 .781-.787h2.374a4.5 4.5 0 0 0-.03.512 4.456 4.456 0 0 0 .207 1.344l-1.144 1.153a4.41 4.41 0 0 0-2.188-1.3v-.917zm-1.055 2.362a2.862 2.862 0 0 1 2.805 2.362h-5.61a2.862 2.862 0 0 1 2.805-2.359zm27.774 24.412H1.562v-1.574h36.875z" class="cls-1"/>
        <path id="Path_2" d="M211.517 302.938A5.517 5.517 0 1 0 206 297.42a5.524 5.524 0 0 0 5.517 5.518zm0-8.828a3.31 3.31 0 1 1-3.31 3.31 3.314 3.314 0 0 1 3.31-3.31z" class="cls-1" transform="translate(-191.518 -234.377)"/>
        <path id="Path_3" d="M232.621 215.213a3.31 3.31 0 1 0-3.31 3.31 3.314 3.314 0 0 0 3.31-3.31zm-4.414 0a1.1 1.1 0 1 1 1.1 1.1 1.1 1.1 0 0 1-1.1-1.1z" class="cls-1" transform="translate(-209.311 -159.154)"/>
        <path id="Path_4" d="M306 235.213a3.31 3.31 0 1 0 3.31-3.31 3.314 3.314 0 0 0-3.31 3.31zm4.414 0a1.1 1.1 0 1 1-1.1-1.1 1.1 1.1 0 0 1 1.1 1.1z" class="cls-1" transform="translate(-283.404 -177.681)"/>
        <path id="Path_5" d="M149.31 231.9a3.31 3.31 0 1 0 3.31 3.31 3.314 3.314 0 0 0-3.31-3.31zm0 4.414a1.1 1.1 0 1 1 1.1-1.1 1.1 1.1 0 0 1-1.1 1.103z" class="cls-1" transform="translate(-135.219 -177.681)"/>
        <circle id="Ellipse_1" cx="1.103" cy="1.103" r="1.103" class="cls-1" transform="translate(34.548 59.723)"/>
    </g>
</svg>
