<svg xmlns="http://www.w3.org/2000/svg" width="20" height="20" viewBox="0 0 20 20">
    <path fill="#fda15a" d="M17.891 2.818h-4.164V1H21v7.273h-1.818V4.1l-4.391 4.391A4.6 4.6 0 0 1 15.545 11a4.546 4.546 0 0 1-3.636 4.455v1.909h1.818v1.818h-1.818V21h-1.818v-1.818H8.273v-1.818h1.818v-1.909A4.543 4.543 0 0 1 7.2 8.509L6.127 7.427 4.855 8.691 3.573 7.4l1.272-1.264-2.027-2.027v3.255H1V1h6.364v1.818H4.1l2.027 2.037 1.309-1.3 1.291 1.29-1.309 1.3 1.064 1.073a4.526 4.526 0 0 1 5.018-.009l4.391-4.391M11 8.273A2.727 2.727 0 1 0 13.727 11 2.727 2.727 0 0 0 11 8.273z" transform="translate(-1 -1)"/>
</svg>
