<svg xmlns="http://www.w3.org/2000/svg" width="40" height="40" viewBox="0 0 40 40">
    <g>
        <g>
            <path fill="#883404" d="M38.609 7.491l-6.1-6.1a4.749 4.749 0 0 0-6.717 0l-9.714 9.714a.781.781 0 0 0 1.1 1.1L26.9 2.5a3.187 3.187 0 0 1 4.507 0l6.1 6.1a3.191 3.191 0 0 1 .485 3.887l-7.679-7.68a.782.782 0 0 0-1.1 0l-24.4 24.4a.781.781 0 0 0 0 1.1l7.676 7.676A3.191 3.191 0 0 1 8.6 37.5l-6.1-6.1a3.187 3.187 0 0 1 0-4.507l9.714-9.714a.781.781 0 0 0-1.1-1.1l-9.723 9.713a4.749 4.749 0 0 0 0 6.717l6.1 6.1a4.749 4.749 0 0 0 6.717 0 .781.781 0 0 0 0-1.1L6.464 29.76 7.8 28.425l7.744 7.744a.781.781 0 1 0 1.1-1.1L8.9 27.32l1.335-1.335 7.744 7.744a.781.781 0 0 0 1.1-1.1l-7.735-7.749 1.335-1.335 7.744 7.744a.781.781 0 0 0 1.1-1.1l-7.739-7.749 1.336-1.34 7.744 7.744a.781.781 0 1 0 1.1-1.1L16.225 20l1.335-1.335 7.74 7.744a.781.781 0 1 0 1.1-1.1l-7.735-7.749L20 16.225l7.744 7.744a.781.781 0 1 0 1.1-1.1L21.1 15.12l1.335-1.335 7.744 7.744a.781.781 0 1 0 1.1-1.1l-7.734-7.749 1.335-1.335 7.744 7.744a.781.781 0 1 0 1.1-1.1l-7.739-7.749L27.32 8.9l7.744 7.744a.781.781 0 1 0 1.1-1.1L28.425 7.8l1.335-1.336 7.74 7.744a.782.782 0 0 0 1.1 0 4.75 4.75 0 0 0 0-6.717z"/>
        </g>
    </g>
</svg>
