<svg xmlns="http://www.w3.org/2000/svg" width="31.569" height="30" viewBox="0 0 31.569 30">
    <path fill="#5adb78" d="M29.508 24.5a2.932 2.932 0 0 1 2.175.9 2.848 2.848 0 0 1 .87 2.1L20.508 32l-10.5-3V15.5h2.925l10.9 4.035a1.682 1.682 0 0 1 1.17 1.68 1.709 1.709 0 0 1-.51 1.23 1.826 1.826 0 0 1-1.29.555h-4.2l-2.625-1.005-.495 1.41 3.12 1.095h10.5m-6-20.655A5.11 5.11 0 0 1 27.558 2a4.553 4.553 0 0 1 3.45 1.5 5.264 5.264 0 0 1 1.5 3.45 6.834 6.834 0 0 1-1.5 3.69 26.04 26.04 0 0 1-2.955 3.585q-1.453 1.44-4.545 4.275-3.12-2.835-4.59-4.275a24.672 24.672 0 0 1-2.955-3.585 6.639 6.639 0 0 1-1.455-3.69 4.619 4.619 0 0 1 1.455-3.45 5.1 5.1 0 0 1 7.545.345M.984 15.5h6.024V32H.984z" opacity="0.995" transform="translate(-.984 -2)"/>
</svg>
