<svg xmlns="http://www.w3.org/2000/svg" width="112" height="100" viewBox="0 0 112 100">
    <path fill="#fda15a" d="M37.6 3.068c6.581-.944 13.553 6.217 15.56 16.1 2.008 9.825-1.617 18.6-8.2 19.594-6.525 1-13.553-6.161-15.616-16.042-2.064-9.825 1.673-18.6 8.254-19.65m39.877 0c6.637 1.055 10.318 9.825 8.366 19.65-2.115 9.88-9.087 17.04-15.668 16.04-6.637-1-10.262-9.769-8.2-19.594 2.008-9.88 8.979-17.041 15.5-16.1M7.764 28.6c6.358-2.72 15 2.22 19.52 10.824 4.239 8.77 2.789 17.985-3.514 20.7S8.88 57.966 4.474 49.251 1.63 31.267 7.764 28.6m100.389 0c6.135 2.664 7.7 11.934 3.291 20.649s-12.995 13.6-19.3 10.88-7.752-11.934-3.514-20.7c4.518-8.6 13.162-13.544 19.52-10.824M98.84 88.44c.223 5.218-3.792 10.991-8.589 13.156-9.983 4.552-21.807-4.885-32.905-4.885S34.312 106.536 24.5 101.6c-5.577-2.72-9.425-9.936-8.7-15.931 1-8.271 10.987-12.711 16.9-18.762 7.864-7.827 13.441-22.536 24.651-22.536 11.154 0 17.066 14.488 24.6 22.536 6.181 6.768 16.498 12.486 16.889 21.533z" transform="translate(-1.959 -2.985)"/>
</svg>
