<svg xmlns="http://www.w3.org/2000/svg" width="40" height="40" viewBox="0 0 40 40">
    <path fill="#79c624" d="M22 2a19.819 19.819 0 0 1 13 4.8 20 20 0 0 0 0 30.4 20 20 0 0 1-26 0A19.964 19.964 0 0 0 16 22 19.964 19.964 0 0 0 9 6.8 19.819 19.819 0 0 1 22 2m20 20a19.872 19.872 0 0 1-4.24 12.3 16.013 16.013 0 0 1 0-24.6A19.872 19.872 0 0 1 42 22M2 22A19.872 19.872 0 0 1 6.24 9.7 15.988 15.988 0 0 1 12 22a15.988 15.988 0 0 1-5.76 12.3A19.872 19.872 0 0 1 2 22z" transform="translate(-2 -2)"/>
</svg>
