<svg xmlns="http://www.w3.org/2000/svg" width="60" height="60" viewBox="0 0 60 60">
    <defs>
        <style>
            .cls-3{fill:#365e7d}.cls-9{fill:#dd636e}.cls-10{fill:#ffddce}.cls-12{fill:#f4fbff}
        </style>
    </defs>
    <g id="profile">
        <g id="Group_28">
            <g id="Group_14" transform="translate(0 .018)">
                <path id="Path_31" fill="#cbe2ff" d="M29.969 56.743l11.873-3A30.709 30.709 0 0 0 28.938.149 29.988 29.988 0 0 0 8.874 51.414z" transform="translate(0 -.149)"/>
            </g>
            <g id="Group_15" transform="translate(25.898)">
                <path id="Path_32" fill="#bed8fb" d="M249.867 29.972a29.834 29.834 0 0 1-12.146 24.01l10.879-2.721a29.739 29.739 0 0 0 8.961-21.289A30.115 30.115 0 0 0 227.3 0a30.837 30.837 0 0 0-3.846.24 30.076 30.076 0 0 1 26.41 29.732z" transform="translate(-223.457)"/>
            </g>
            <g id="Group_27" transform="translate(8.277 8.66)">
                <g id="Group_26">
                    <g id="Group_25">
                        <path id="Path_33" d="M178.334 76.076a2.767 2.767 0 0 0-2.735-2.8h-9.425a6.368 6.368 0 0 0-6.294 6.439v7.15h22.2v-7.046a2.767 2.767 0 0 0-2.735-2.8h-.092a.934.934 0 0 1-.919-.943z" class="cls-3" transform="translate(-149.261 -73.278)"/>
                        <path id="Path_34" fill="#2b4d66" d="M291.9 77.02h-.1a.945.945 0 0 1-.945-.945 2.8 2.8 0 0 0-2.8-2.8H287v13.591h7.692v-7.048a2.8 2.8 0 0 0-2.8-2.8z" transform="translate(-261.721 -73.277)"/>
                        <path id="Path_35" fill="#4a80aa" d="M111.478 338.356a6.612 6.612 0 0 0-2.661-1.625l-8.159-2.615-8.913-.317-8.917.317-8.159 2.615a6.715 6.715 0 0 0-4.636 6.409v2.26a29.642 29.642 0 0 0 20.685 9.446 30.721 30.721 0 0 0 20.76-16.49z" transform="translate(-70.032 -303.521)"/>
                        <path id="Path_36" fill="#407093" d="M249.335 376.107v-2.257a6.721 6.721 0 0 0-2.494-5.225 30.281 30.281 0 0 1-23.324 16.7 30.54 30.54 0 0 0 3.785.243 32.352 32.352 0 0 0 3.643-.211 30.178 30.178 0 0 0 18.39-9.25z" transform="translate(-205.889 -334.231)"/>
                        <path id="Path_37" fill="#e4f6ff" d="M210.684 338.765c1.831-3.634 6.6-13.954 5.238-20.4L210 316.06l-5.927 2.3c-1.4 6.645 3.708 17.406 5.4 20.717q.61-.142 1.211-.312z" transform="translate(-188.276 -287.878)"/>
                        <path id="Path_38" fill="#e28086" d="M231.457 413.317l-2.4-9.445h-2.809l-2.395 9.419 2.962 3.3q1.128-.258 2.223-.6z" transform="translate(-205.928 -365.312)"/>
                        <path id="Path_39" d="M244.947 499.315c.245.006.491.011.738.011.285 0 .57-.005.854-.013l1.525-1.685a30.023 30.023 0 0 1-3.7 1.038z" class="cls-9" transform="translate(-224.021 -447.987)"/>
                        <g id="Group_23" transform="translate(10.363 7.581)">
                            <g id="Group_22" transform="translate(6.301 17.219)">
                                <g id="Group_21">
                                    <g id="Group_20">
                                        <g id="Group_19">
                                            <g id="Group_18">
                                                <g id="Group_17">
                                                    <g id="Group_16">
                                                        <path id="Path_40" d="M223.308 288.443v-5.326h-10.114v5.326c0 2.793 5.057 5.844 5.057 5.844s5.057-3.051 5.057-5.844z" class="cls-10" transform="translate(-213.194 -283.117)"/>
                                                    </g>
                                                </g>
                                            </g>
                                        </g>
                                    </g>
                                </g>
                            </g>
                            <path id="Path_41" d="M182.6 142.494h-1.933a1.947 1.947 0 0 1-1.947-1.947v-1.065a2.055 2.055 0 0 0-2.7-1.951 15.222 15.222 0 0 1-9.552 0 2.055 2.055 0 0 0-2.7 1.952v1.066a1.947 1.947 0 0 1-1.947 1.947h-1.941v3.184a1.473 1.473 0 0 0 1.473 1.473.484.484 0 0 1 .482.457 9.423 9.423 0 0 0 18.807 0 .484.484 0 0 1 .482-.457 1.473 1.473 0 0 0 1.473-1.473v-3.184z" class="cls-10" transform="translate(-159.88 -137.424)"/>
                            <path id="Path_42" fill="#ffcbbe" d="M257.732 142.5a1.947 1.947 0 0 1-1.947-1.947v-1.065a2.055 2.055 0 0 0-2.7-1.951q-.551.182-1.112.32v10.515a9.42 9.42 0 0 1-4.7 8.008 9.413 9.413 0 0 0 10.433-8.766.484.484 0 0 1 .482-.457 1.473 1.473 0 0 0 1.473-1.473V142.5h-1.933z" transform="translate(-236.949 -137.427)"/>
                        </g>
                        <g id="Group_24" transform="translate(12.698 28.353)">
                            <path id="Path_43" d="M183.6 316.06l-3.966 3.223 4.159 5.143a1.378 1.378 0 0 0 1.844.07l3.128-2.613z" class="cls-12" transform="translate(-179.636 -316.06)"/>
                            <path id="Path_44" d="M261.849 316.06l-4.951 5.823 2.94 2.514a1.378 1.378 0 0 0 1.85-.054l4.13-5.06z" class="cls-12" transform="translate(-247.767 -316.06)"/>
                        </g>
                    </g>
                    <path id="Path_45" d="M164.766 316.06l-5.821 2.86a.882.882 0 0 0-.395 1.2l1.141 2.211a1.481 1.481 0 0 1-.27 1.727l-.71.708a1.477 1.477 0 0 0-.362 1.505c1.377 4.2 8 10.617 10.512 12.939q.253.007.507.009c-1.819-3.541-8.268-16.981-4.602-23.159z" class="cls-3" transform="translate(-148.008 -287.878)"/>
                    <path id="Path_46" d="M269.813 324.054a1.481 1.481 0 0 1-.27-1.727l1.141-2.211a.882.882 0 0 0-.395-1.2l-5.821-2.86c3.661 6.176-2.779 19.611-4.6 23.153q.257 0 .512-.013c2.513-2.328 9.13-8.739 10.505-12.933a1.477 1.477 0 0 0-.362-1.505z" class="cls-3" transform="translate(-237.78 -287.878)"/>
                    <path id="Path_47" d="M233.918 365.327l-3.08 2.572 1.569 1.983h2.809l1.569-2.1z" class="cls-9" transform="translate(-212.089 -331.184)"/>
                </g>
            </g>
        </g>
    </g>
</svg>
