<svg xmlns="http://www.w3.org/2000/svg" width="40" height="40" viewBox="0 0 40 40">
    <g>
        <path fill="#79c619" d="M55.8 50.861l-2.007-1.974L51.2 45.7l-1.641-6.454a.665.665 0 0 0 .337-.5l.678-6a.657.657 0 0 0-.034-.3l-1.32-3.68a5.714 5.714 0 0 0-.985-3.092l-1.046-1.546V23.1l.614-1.813.9-1.325a1.884 1.884 0 0 0 .1-1.961 1.948 1.948 0 0 0-1.713-1.009h-1.056l-.915-.6a2.42 2.42 0 0 0-2.773.088 2.324 2.324 0 0 0-.816 2.607l.231.68v2.558a1.346 1.346 0 0 0 1.356 1.333.681.681 0 0 0-.577.316.657.657 0 0 0-.03.649l.49.977-1.768 2.4a2.911 2.911 0 0 0-.532 1.28.665.665 0 0 0-.042.071l-1.446 2.843-3.157 1.862-1.963.644a.668.668 0 0 0-.464.632v1.333a.661.661 0 0 0 .2.471l.05.049-8.458 4.752-1.546-.507-1.907-2.5a.685.685 0 0 0-1.106.03L19.6 40.816l-1.195.588a.672.672 0 0 0-.3.3l-.577 1.135-1.154.567a.662.662 0 0 0-.3.894l1.356 2.667a.682.682 0 0 0 .771.349l2.52-.62 1.493.489.251.989a3.283 3.283 0 0 0 .266.7l-1.713 1.263a.66.66 0 0 0-.223.781l1.356 3.333a.681.681 0 0 0 .844.385l2.034-.667a.664.664 0 0 0 .429-.843l-.545-1.609.647-.636.612.24v1.391l-1.284 2.526a.657.657 0 0 0 .03.649.681.681 0 0 0 .572.313h2.71a.681.681 0 0 0 .564-.3l1.356-2a.659.659 0 0 0 .114-.37v-2.184l2.712-.889v1.613l-1.306 3.215a.657.657 0 0 0 .068.621.681.681 0 0 0 .562.294h2.712a.678.678 0 0 0 .629-.419l1.356-3.333a.657.657 0 0 0 .049-.248v-.558l.965.563-.15.251-1.295 1.273a.661.661 0 0 0-.2.471v1.333a.672.672 0 0 0 .678.667h5.424a.672.672 0 0 0 .678-.667V44.942l1.907-1.875 1.518 4.477a.663.663 0 0 0 .1.189l3.933 5.155v1.778a.672.672 0 0 0 .678.667h2.712a.678.678 0 0 0 .629-.419l1.357-3.334a.659.659 0 0 0-.15-.719zm-8.089-22.286l1.495 4.169-.6 5.338-.676.1-.7-.565.4-1.073a.658.658 0 0 0 .039-.183l.2-2.983a.657.657 0 0 0-.042-.279l-1.531-4.015a.741.741 0 0 1 .452-.954.76.76 0 0 1 .97.445zM43.223 17.5a1.043 1.043 0 0 1 1.144 0l1.086.712a.686.686 0 0 0 .376.112h1.252a.589.589 0 0 1 .518.3.569.569 0 0 1-.029.593l-.747 1.1h-.574l-.491-.965a.679.679 0 0 0-.606-.368h-2.224l-.111-.327a1.007 1.007 0 0 1 .406-1.164zm.572 4.824h-.678v-2h1.615l.491.965a.679.679 0 0 0 .606.368h.415l-.38 1.122a.657.657 0 0 0-.035.211v.667h-1.356v-.667a.672.672 0 0 0-.673-.663zM42.33 28.78l2.014-2.728a.657.657 0 0 0 .058-.69l-.187-.368h1.93l.955 1.416c.079.117.151.236.218.358a2.132 2.132 0 0 0-1.962.743 2.051 2.051 0 0 0-.339 2.04l1.479 3.88-.129 1.9H43.8V32a.666.666 0 0 0-.375-.6l-.5-.246a1.61 1.61 0 0 1-.855-1.054 1.583 1.583 0 0 1 .265-1.323zm-7.348 7.034l1.57-.515a.69.69 0 0 0 .134-.061l3.39-2a.672.672 0 0 0 .258-.273l.824-1.621a2.954 2.954 0 0 0 1.156 1.006l.126.062v.032l-1.784 2.339-3.213 1.264a.681.681 0 0 0-.124.064l-1.571 1.03-.764-.752zm.2 2.658a.687.687 0 0 0 .856.083l1.975-1.295 3.324-1.307a.677.677 0 0 0 .291-.219l.814-1.067v1.153l-2.513 4.236a3.416 3.416 0 0 0-1.037-.449l-1.032-.254a.685.685 0 0 0-.662.194.658.658 0 0 0-.146.664l.072.211a2.335 2.335 0 0 1-.32 2.128A7.474 7.474 0 0 0 34 42h-1.256a7.507 7.507 0 0 0-1.04.073l-2.732.383a6.054 6.054 0 0 1-1.728-.008l7.623-4.283zM39.4 44.4a4.827 4.827 0 0 0-.814-.815c-.186-.146-.38-.282-.578-.409a3.636 3.636 0 0 0 .583-2.266 2.04 2.04 0 0 1 1.474 1.506A2 2 0 0 1 39.4 44.4zm-18.823.953l-2.184.537-.81-1.592.75-.369a.672.672 0 0 0 .3-.3l.577-1.135 1.154-.567a.674.674 0 0 0 .261-.226l.824-1.216 1.465 1.915a.678.678 0 0 0 .328.233l1.192.391-1.934 2.848-1.542-.506a.688.688 0 0 0-.379-.014zm2.59 7.815l-.926-2.275 1.327-.979a3.39 3.39 0 0 0 .628.411l-.545.536a.659.659 0 0 0-.164.682l.464 1.367zm11.352 1.5h-1.248l.984-2.419A.657.657 0 0 0 34.3 52v-2.559l.249-.735 1.107 1.36v1.8zm3.171-.391l1.157-1.138a.668.668 0 0 0 .1-.128l.606 1.656h-1.859zm3.31.389l-1.058-2.892a.669.669 0 0 0-.292-.348l-2.181-1.271-2.635-3.238a.684.684 0 0 0-.648-.24.675.675 0 0 0-.524.445l-.571 1.684-3.746 1.228a.668.668 0 0 0-.464.633v2.465l-1.041 1.535h-1.253l.865-1.7a.657.657 0 0 0 .072-.3v-2a.667.667 0 0 0-.426-.619L25 49.22a2.016 2.016 0 0 1-1.218-1.372l-.269-1.058 2.258-3.331.062.02a7.446 7.446 0 0 0 3.335.3l2.732-.383a6.1 6.1 0 0 1 .848-.06H34a6.083 6.083 0 0 1 3.746 1.292 3.387 3.387 0 0 1 1.303 2.672v1.367a.661.661 0 0 0 .2.471l1.874 1.843.535 3.686zm.962-10.471a.661.661 0 0 0-.2.471v5.057l-1.357-1.333V47.3a4.692 4.692 0 0 0-.328-1.724l.033-.024a3.347 3.347 0 0 0 1.3-3.345 3.306 3.306 0 0 0-.492-1.175l2.59-4.364h2.625l-.346.939a.66.66 0 0 0 .208.743l1.039.835c-.07.083-.142.163-.22.239zm4.138-2.182l1.675-1.647a4.882 4.882 0 0 0 .519-.6l1.627 6.4a.66.66 0 0 0 .128.255l2.417 2.971-1.276 2.081-3.4-4.454zM53.506 54h-1.575v-1.149l1.491-2.443 1.1 1.085z" transform="translate(-15.999 -15.999)"/>
    </g>
</svg>
