<svg xmlns="http://www.w3.org/2000/svg" width="40" height="37.715" viewBox="0 0 40 37.715">
    <defs>
        <style>
            .cls-1{fill:#04a3ff}
        </style>
    </defs>
    <g id="pet" transform="translate(0 -18.288)">
        <path id="Path_27" d="M98.551 53.726a17.931 17.931 0 0 0-9.134-2.292 20.608 20.608 0 0 0-4.222.429.676.676 0 0 0-.5.794.633.633 0 0 0 .738.535 19.431 19.431 0 0 1 3.981-.4 16.731 16.731 0 0 1 8.518 2.119c2.15 1.3 3.334 2.978 3.334 4.734s-1.184 3.436-3.334 4.733a18.183 18.183 0 0 1-17.037 0c-2.15-1.3-3.334-2.978-3.334-4.733 0-2.275 2.085-4.477 5.441-5.746a.691.691 0 0 0 .385-.863.619.619 0 0 0-.8-.414c-3.934 1.487-6.283 4.113-6.283 7.023 0 2.267 1.413 4.367 3.978 5.914a19.35 19.35 0 0 0 18.269 0c2.565-1.547 3.978-3.648 3.978-5.914s-1.413-4.372-3.978-5.919z" class="cls-1" transform="translate(-69.417 -30.154)"/>
        <path id="Path_28" d="M36.829 29.758c-.324-.989-.6-1.844-.809-2.5a11.318 11.318 0 0 0-5.265-6.358A21.937 21.937 0 0 0 20 18.288 21.937 21.937 0 0 0 9.245 20.9a11.318 11.318 0 0 0-5.265 6.362c-.2.653-.485 1.507-.809 2.5C1.5 34.858 0 39.577 0 41.282c0 4.679 2.708 8.918 7.429 11.627A25.622 25.622 0 0 0 20 56a25.622 25.622 0 0 0 12.571-3.094C37.292 50.2 40 45.961 40 41.282c0-1.705-1.5-6.424-3.171-11.524zm-4.889 22A24.341 24.341 0 0 1 20 54.682a24.341 24.341 0 0 1-11.94-2.925c-4.3-2.47-6.769-6.288-6.769-10.475 0-1.631 1.943-7.561 3.1-11.1.326-.994.607-1.852.814-2.513a10.011 10.011 0 0 1 4.668-5.617A20.657 20.657 0 0 1 20 19.608a20.657 20.657 0 0 1 10.124 2.439 10.011 10.011 0 0 1 4.668 5.617c.207.661.489 1.519.814 2.513 1.161 3.543 3.1 9.473 3.1 11.1.004 4.193-2.464 8.011-6.766 10.48z" class="cls-1"/>
        <path id="Path_29" d="M110.569 114.843a.6.6 0 0 0-.5.275 3.348 3.348 0 0 1-2.753 1.53.68.68 0 0 0 0 1.354 4.472 4.472 0 0 0 3.251-1.455 4.356 4.356 0 0 0 6.5 0 4.357 4.357 0 0 0 6.5 0 4.472 4.472 0 0 0 3.252 1.453.68.68 0 0 0 0-1.354 3.307 3.307 0 0 1-2.752-1.53.6.6 0 0 0-.5-.275.6.6 0 0 0-.5.275 3.348 3.348 0 0 1-2.753 1.53 3.307 3.307 0 0 1-2.752-1.53.6.6 0 0 0-.5-.275.6.6 0 0 0-.5.275 3.241 3.241 0 0 1-5.505 0 .6.6 0 0 0-.488-.273z" class="cls-1" transform="translate(-97.068 -88.074)"/>
    </g>
</svg>
